<svg xmlns="http://www.w3.org/2000/svg" width="42" height="24" viewBox="0 0 42 24" fill="currentColor">
    <path d="M6.97885 4.21049C7.58029 3.29869 8.59953 2.75 9.69181 2.75H34.4303C35.5326 2.75 36.5597 3.30868 37.1586 4.23401L40.7283 9.74894C41.0688 10.275 41.25 10.8883 41.25 11.5149V18C41.25 19.7949 39.7949 21.25 38 21.25H9.34742C8.41312 21.25 7.52401 20.8479 6.90698 20.1463L2.5807 15.2272C1.61287 14.1268 1.50125 12.5147 2.30818 11.2914L6.97885 4.21049Z" fill="#FF8200" stroke="#FF8200" stroke-width="1.5"/>
    <g clip-path="url(#clip0_2423_11997)">
    <path fill-rule="evenodd" clip-rule="evenodd" d="M19.2133 14.6682L19.5955 14.7566C19.9602 14.841 20.3151 14.6096 20.3883 14.2398C20.4615 13.87 20.2253 13.5019 19.8607 13.4175L17.9817 12.9828C17.6453 12.905 17.3119 13.0961 17.2076 13.4266L16.6931 15.0573C16.58 15.4155 16.7756 15.8069 17.13 15.9316C17.4843 16.0563 17.8632 15.867 17.9762 15.5088L18.0326 15.33C18.8201 16.4004 19.8767 17.0567 20.7343 17.3585C21.8005 17.7337 23.3704 17.8472 24.8846 17.0905C26.4035 16.3316 27.2654 14.9636 27.6037 13.8917C27.7167 13.5334 27.5211 13.142 27.1668 13.0173C26.8124 12.8926 26.4336 13.0819 26.3205 13.4401C26.068 14.2403 25.4073 15.2841 24.2668 15.854C23.1216 16.4262 21.9293 16.3377 21.1436 16.0613C20.5417 15.8495 19.7953 15.393 19.2133 14.6682ZM24.4586 10.438C24.094 10.3537 23.8577 9.98552 23.9309 9.61573C24.0041 9.24594 24.3591 9.01456 24.7237 9.09892L25.1059 9.18734C24.524 8.4625 23.7776 8.00608 23.1756 7.79425C22.39 7.5178 21.1977 7.4293 20.0525 8.00153C18.912 8.57143 18.2512 9.61521 17.9987 10.4154C17.8857 10.7736 17.5068 10.9629 17.1525 10.8382C16.7982 10.7136 16.6026 10.3221 16.7156 9.96388C17.0539 8.8919 17.9158 7.52396 19.4346 6.765C20.9489 6.00837 22.5187 6.12187 23.585 6.49706C24.4426 6.79886 25.4991 7.45518 26.2867 8.52552L26.3431 8.34675C26.4561 7.98854 26.835 7.79923 27.1893 7.92392C27.5436 8.0486 27.7392 8.44006 27.6262 8.79827L27.1116 10.4289C27.0074 10.7594 26.6739 10.9506 26.3375 10.8727L24.4586 10.438Z" fill="white"/>
    </g>
    <defs>
    <clipPath id="clip0_2423_11997">
    <rect width="12" height="12" fill="white" transform="translate(16 6)"/>
    </clipPath>
    </defs>
  
</svg>
