<svg xmlns="http://www.w3.org/2000/svg" viewBox="0 0 238 100" width="238" height="100">
  <path d="M85.07,24.86l-0,2.91l-2.97,0l-0,-2.91z" fill="#000000"/>
  <path d="M79.12,19.04l-0,2.91l-2.97,0l-0,-2.91z" fill="#000000"/>
  <path d="M88.04,27.77l-0,2.91l-2.97,0l-0,-2.91z" fill="#000000"/>
  <path d="M85.07,21.95h2.97v2.91h-2.97z" fill="#000000"/>
  <path d="M88.79,45.22h29.73v2.91h-29.73z" fill="#000000"/>
  <path d="M85.81,48.13h2.97v2.91h-2.97z" fill="#000000"/>
  <path d="M118.51,48.13h2.97v2.91h-2.97z" fill="#000000"/>
  <path d="M79.12,27.77h2.97v2.91h-2.97z" fill="#000000"/>
  <path d="M88.04,19.04h2.97v2.91h-2.97z" fill="#000000"/>
  <path d="M82.1,24.86h2.97v2.91h-2.97z" fill="#000000"/>
  <path d="M91.01,30.68l-0,2.91l-2.97,0l-0,-2.91z" fill="#000000"/>
  <path d="M79.12,30.68l-0,2.91l-2.97,0l-0,-2.91z" fill="#000000"/>
  <path d="M82.1,21.95l-0,2.91l-2.97,0l-0,-2.91z" fill="#000000"/>
  <path d="M125.2,24.86l-0,2.91l-2.97,0l-0,-2.91z" fill="#000000"/>
  <path d="M119.26,19.04l-0,2.91l-2.97,0l-0,-2.91z" fill="#000000"/>
  <path d="M128.18,27.77l-0,2.91l-2.97,0l-0,-2.91z" fill="#000000"/>
  <path d="M125.2,21.95h2.97v2.91h-2.97z" fill="#000000"/>
  <path d="M119.26,27.77h2.97v2.91h-2.97z" fill="#000000"/>
  <path d="M128.18,19.04h2.97v2.91h-2.97z" fill="#000000"/>
  <path d="M122.23,24.86h2.97v2.91h-2.97z" fill="#000000"/>
  <path d="M131.15,30.68l-0,2.91l-2.97,0l-0,-2.91z" fill="#000000"/>
  <path d="M119.26,30.68l-0,2.91l-2.97,0l-0,-2.91z" fill="#000000"/>
  <path d="M122.23,21.95l-0,2.91l-2.97,0l-0,-2.91z" fill="#000000"/>
</svg>
