<svg xmlns="http://www.w3.org/2000/svg" width="75" height="75" viewBox="0 0 75 75" fill="currentColor">
	<path d="M50,45c-4.45,0-10.55,0-15,0v5c8.02,0,16.98,0,25,0v-5C57.51,45,52.49,45,50,45z"/>
	<path d="M50,35c-4.45,0-10.55,0-15,0v5c8.02,0,16.98,0,25,0v-5C57.51,35,52.49,35,50,35z"/>
	<path d="M70,20c0,13.14,0,26.86,0,40c-21.55,0-43.45,0-65,0c0-11.44,0-23.56,0-35c6.27,0,13.73,0,20,0v-5c-6.27,0-13.73,0-20,0v-5
		H0c0,16.51,0,33.49,0,50c24.9,0,50.1,0,75,0c0-14.83,0-30.17,0-45H70z"/>
	<path d="M30,20c13.14,0,26.86,0,40,0v-5c-14.83,0-30.17,0-45,0v5H30z"/>
	<path d="M15,15c2.49,0,7.51,0,10,0v-5c-6.27,0-13.73,0-20,0v5C7.49,15,12.51,15,15,15z"/>
</svg>
