<svg xmlns="http://www.w3.org/2000/svg" width="75" height="75" viewBox="0 0 75 75" fill="currentColor">
		<g>
			<rect x="60" y="65" width="5" height="5"/>
			<path d="M65,60v5h5c0-2.49,0-7.51,0-10h-5V60z"/>
			<rect x="45" y="55" width="5" height="5"/>
			<rect x="50" y="50" width="5" height="5"/>
			<path d="M60,45c0-6.27,0-13.73,0-20h-5c0,8.02,0,16.98,0,25h5V45z"/>
			<rect x="5" y="45" width="5" height="5"/>
			<path d="M35,35v5c-2.49,0-7.51,0-10,0v-5h-5v-5h-5v-5c-2.49,0-7.51,0-10,0v5H0c0,4.45,0,10.55,0,15h5c0-2.49,0-7.51,0-10
				c2.49,0,7.51,0,10,0v5h5v5h5v5c2.49,0,7.51,0,10,0v-5h5c0-4.45,0-10.55,0-15h-5V35z"/>
			<rect x="30" y="25" width="5" height="5"/>
			<path d="M70,20c0,11.44,0,23.56,0,35h5c0-11.44,0-23.56,0-35H70z"/>
			<rect x="50" y="20" width="5" height="5"/>
			<rect x="45" y="15" width="5" height="5"/>
			<path d="M70,10h-5c0,2.49,0,7.51,0,10h5C70,17.51,70,12.49,70,10z"/>
			<rect x="60" y="5" width="5" height="5"/>
		</g>
	
</svg>
