<svg xmlns="http://www.w3.org/2000/svg" viewBox="0 0 42 42" width="42" height="42">
  <path fill="#D6D6D6" fill-rule="evenodd" d="M18,2h5v1h-5zM18,3h5v1h-5zM17,4h7v1h-7zM17,5h7v1h-7zM8,6h2v1h-2zM17,6h7v1h-7zM31,6h2v1h-2zM7,7h5v1h-5zM14,7h13v1h-13zM29,7h5v1h-5zM6,8h29v1h-29zM6,9h29v1h-29zM7,10h27v1h-27zM7,11h27v1h-27zM8,12h25v1h-25zM8,13h25v1h-25zM7,14h27v1h-27zM7,15h10v1h-10zM24,15h10v1h-10zM7,16h9v1h-9zM25,16h9v1h-9zM4,17h11v1h-11zM26,17h11v1h-11zM2,18h13v1h-13zM26,18h13v1h-13zM2,19h13v1h-13zM26,19h13v1h-13zM2,20h13v1h-13zM26,20h13v1h-13zM2,21h13v1h-13zM26,21h13v1h-13zM2,22h13v1h-13zM26,22h13v1h-13zM4,23h11v1h-11zM26,23h11v1h-11zM7,24h9v1h-9zM25,24h9v1h-9zM7,25h10v1h-10zM24,25h10v1h-10zM7,26h27v1h-27zM8,27h25v1h-25zM8,28h25v1h-25zM7,29h27v1h-27zM7,30h27v1h-27zM6,31h29v1h-29zM6,32h29v1h-29zM7,33h5v1h-5zM14,33h13v1h-13zM29,33h5v1h-5zM8,34h2v1h-2zM17,34h7v1h-7zM31,34h2v1h-2zM17,35h7v1h-7zM17,36h7v1h-7zM18,37h5v1h-5zM18,38h5v1h-5z" data-pixel-editor="42x42" data-bits="000000000000000000000000000000000000000000000000000000000000000000000000000000000000000000000000000000111110000000000000000000000000000000000000111110000000000000000000000000000000000001111111000000000000000000000000000000000001111111000000000000000000000000001100000001111111000000011000000000000000011111001111111111111001111100000000000000111111111111111111111111111110000000000000111111111111111111111111111110000000000000011111111111111111111111111100000000000000011111111111111111111111111100000000000000001111111111111111111111111000000000000000001111111111111111111111111000000000000000011111111111111111111111111100000000000000011111111110000000111111111100000000000000011111111100000000011111111100000000000011111111111000000000001111111111100000001111111111111000000000001111111111111000001111111111111000000000001111111111111000001111111111111000000000001111111111111000001111111111111000000000001111111111111000001111111111111000000000001111111111111000000011111111111000000000001111111111100000000000011111111100000000011111111100000000000000011111111110000000111111111100000000000000011111111111111111111111111100000000000000001111111111111111111111111000000000000000001111111111111111111111111000000000000000011111111111111111111111111100000000000000011111111111111111111111111100000000000000111111111111111111111111111110000000000000111111111111111111111111111110000000000000011111001111111111111001111100000000000000001100000001111111000000011000000000000000000000000001111111000000000000000000000000000000000001111111000000000000000000000000000000000000111110000000000000000000000000000000000000111110000000000000000000000000000000000000000000000000000000000000000000000000000000000000000000000000000000000000000000000000000000000000000000000000"/>
</svg>
