<svg xmlns="http://www.w3.org/2000/svg" width="75" height="75" viewBox="0 0 75 75" fill="currentColor">
		<g>
			<path d="M23,68v-5h-5c0,2.49,0,7.51,0,10c4.45,0,10.55,0,15,0v-5C30.51,68,25.49,68,23,68z"/>
			<path d="M68,68h5c0-2.49,0-7.51,0-10h-5C68,60.49,68,65.51,68,68z"/>
			<path d="M63,63h-5v-5h-5v-5h-5v-5h-5v-5h-5v5h-5c0,6.27,0,13.73,0,20h5c0-4.45,0-10.55,0-15h5v5h5v5h5v5h5v5c2.49,0,7.51,0,10,0v-5
				h-5V63z"/>
			<path d="M28,58v-5h-5c0,2.49,0,7.51,0,10h5V58z"/>
			<rect x="63" y="53" width="5" height="5"/>
			<rect x="58" y="48" width="5" height="5"/>
			<path d="M18,48h-5v5c2.49,0,7.51,0,10,0v-5H18z"/>
			<path d="M8,48v-5H3c0,4.45,0,10.55,0,15c2.49,0,7.51,0,10,0v-5H8V48z"/>
			<rect x="53" y="43" width="5" height="5"/>
			<path d="M18,43c2.49,0,7.51,0,10,0v-5h5v-5h-5v-5h5v5h5v-5h5c0-6.27,0-13.73,0-20h-5c0,4.45,0,10.55,0,15c-2.49,0-7.51,0-10,0v-5
				h-5v-5h-5V8h-5V3C10.51,3,5.49,3,3,3c0,2.49,0,7.51,0,10h5v5h5v5h5v5h5c0,2.49,0,7.51,0,10c-4.45,0-10.55,0-15,0v5
				C10.49,43,15.51,43,18,43z"/>
			<path d="M58,33c-2.49,0-7.51,0-10,0v5h-5v5c2.49,0,7.51,0,10,0v-5c4.45,0,10.55,0,15,0v-5C65.51,33,60.49,33,58,33z"/>
			<path d="M58,28h5v-5c-2.49,0-7.51,0-10,0v5H58z"/>
			<path d="M68,18h-5v5h5c0,2.49,0,7.51,0,10h5c0-4.45,0-10.55,0-15H68z"/>
			<path d="M48,18v5h5c0-2.49,0-7.51,0-10h-5V18z"/>
			<path d="M53,8v5h5c0-2.49,0-7.51,0-10c-4.45,0-10.55,0-15,0v5C45.49,8,50.51,8,53,8z"/>
		</g>
	
</svg>
