<svg xmlns="http://www.w3.org/2000/svg" width="75" height="75" viewBox="0 0 75 75" fill="currentColor">
		<g>
			<path d="M70,55c0-4.45,0-10.55,0-15h-5c0-2.49,0-7.51,0-10c-4.45,0-10.55,0-15,0c0,4.45,0,10.55,0,15h-5c0,2.49,0,7.51,0,10h-5v5
				h-5c0-6.27,0-13.73,0-20h-5c0-2.49,0-7.51,0-10c-4.45,0-10.55,0-15,0c0,4.45,0,10.55,0,15h-5c0,2.49,0,7.51,0,10H5v5H0v5
				c2.49,0,7.51,0,10,0v-5h5c0-2.49,0-7.51,0-10h5c0-4.45,0-10.55,0-15h5c0,2.49,0,7.51,0,10h5c0,6.27,0,13.73,0,20
				c4.45,0,10.55,0,15,0v-5h5c0-2.49,0-7.51,0-10h5c0-4.45,0-10.55,0-15h5c0,2.49,0,7.51,0,10h5c0,6.27,0,13.73,0,20
				c2.49,0,7.51,0,10,0v-5h-5V55z"/>
			<path d="M70,10c-23.22,0-46.78,0-70,0v5h5c0,2.49,0,7.51,0,10h5c0-2.49,0-7.51,0-10h5v5h5v-5h5v5h5v-5h5c0,2.49,0,7.51,0,10h5
				c0-2.49,0-7.51,0-10h5v5h5v-5h5v5h5v-5h5c0,2.49,0,7.51,0,10h5c0-2.49,0-7.51,0-10h5v-5H70z"/>
		</g>
	
</svg>
