<svg xmlns="http://www.w3.org/2000/svg" viewBox="0 0 42 42" width="42" height="42">
  <path fill="currentColor" d="M36,39H33V36V33H30V30H27V27H24H21H18H15V30H12V33H9V36V39H6H3H0V42H3H6H9H12H15H18H21H24H27H30H33H36H39H42V39H39H36Z"/>
  <path fill="currentColor" d="M21,21H24H27V18H24H21H18H15V21H18H21Z"/>
  <path fill="currentColor" d="M33,12H30V15H33V12Z"/>
  <path fill="currentColor" d="M12,12H9V15H12V12Z"/>
  <path fill="currentColor" d="M18,12H21H24H27H30V9H27H24H21H18H15H12V12H15H18Z"/>
  <path fill="currentColor" d="M42,6H39V9H42V6Z"/>
  <path fill="currentColor" d="M3,6H0V9H3V6Z"/>
  <path fill="currentColor" d="M36,6H39V3H36H33V6H36Z"/>
  <path fill="currentColor" d="M3,3V6H6H9V3H6H3Z"/>
  <path fill="currentColor" d="M12,3H15H18H21H24H27H30H33V0H30H27H24H21H18H15H12H9V3H12Z"/>
</svg>
