<svg xmlns="http://www.w3.org/2000/svg" viewBox="0 0 42 42" width="42" height="42">
  <path fill="currentColor" d="M3,9H6V12H3V9Z"/>
  <path fill="currentColor" d="M36,9H39V12H36V9Z"/>
  <path fill="currentColor" d="M6,6H9V9H6V6Z"/>
  <path fill="currentColor" d="M33,6H36V9H33V6Z"/>
  <path fill="currentColor" d="M9,3H12V6H9V3Z"/>
  <path fill="currentColor" d="M30,3H33V6H30V3Z"/>
  <path fill="currentColor" d="M12,3H15V6H12V3Z"/>
  <path fill="currentColor" d="M27,3H30V6H27V3Z"/>
  <path fill="currentColor" d="M15,0H18V3H15V0Z"/>
  <path fill="currentColor" d="M24,0H27V3H24V0Z"/>
  <path fill="currentColor" d="M18,0H21V3H18V0Z"/>
  <path fill="currentColor" d="M21,0H24V3H21V0Z"/>
  <path fill="currentColor" d="M9,15H12V18H9V15Z"/>
  <path fill="currentColor" d="M30,15H33V18H30V15Z"/>
  <path fill="currentColor" d="M12,12H15V15H12V12Z"/>
  <path fill="currentColor" d="M27,12H30V15H27V12Z"/>
  <path fill="currentColor" d="M15,9H18V12H15V9Z"/>
  <path fill="currentColor" d="M24,9H27V12H24V9Z"/>
  <path fill="currentColor" d="M18,9H21V12H18V9Z"/>
  <path fill="currentColor" d="M21,9H24V12H21V9Z"/>
  <path fill="currentColor" d="M15,21H18V24H15V21Z"/>
  <path fill="currentColor" d="M24,21H27V24H24V21Z"/>
  <path fill="currentColor" d="M18,18H21V21H18V18Z"/>
  <path fill="currentColor" d="M21,18H24V21H21V18Z"/>
  <path fill="currentColor" d="M18,30H21V33H18V30Z"/>
  <path fill="currentColor" d="M21,30H24V33H21V30Z"/>
  <path fill="currentColor" d="M18,33H21V36H18V33Z"/>
  <path fill="currentColor" d="M21,33H24V36H21V33Z"/>
</svg>
