<svg xmlns="http://www.w3.org/2000/svg" viewBox="0 0 30 30"><defs><clipPath id="clip1"><path d="M0,0h30v30h-30z"/></clipPath></defs><g clip-path="url(#clip1)"><path d="M6,0h18v2h-18z" fill="#000000"/><path d="M14,3h2v2h-2z" fill="#000000"/><path d="M14,5h2v2h-2z" fill="#000000"/><path d="M12,5h2v2h-2z" fill="#000000"/><path d="M16,5h2v2h-2z" fill="#000000"/><path d="M10,7h10v2h-10z" fill="#000000"/><path d="M16,27l-2,-0l-0,-2l2,-0z" fill="#000000"/><path d="M16,25l-2,-0l-0,-2l2,-0z" fill="#000000"/><path d="M18,25l-2,-0l-0,-2l2,-0z" fill="#000000"/><path d="M14,25l-2,-0l-0,-2l2,-0z" fill="#000000"/><path d="M20,23l-10,-0l-0,-2l10,-0z" fill="#000000"/><path d="M3,16l0,-2l2,-0l0,2z" fill="#000000"/><path d="M5,16l0,-2l2,-0l0,2z" fill="#000000"/><path d="M5,18l0,-2l2,-0l0,2z" fill="#000000"/><path d="M5,14l0,-2l2,-0l0,2z" fill="#000000"/><path d="M7,20l0,-10l2,-0l0,10z" fill="#000000"/><path d="M27,14l-0,2l-2,0l-0,-2z" fill="#000000"/><path d="M25,14l-0,2l-2,0l-0,-2z" fill="#000000"/><path d="M25,12l-0,2l-2,0l-0,-2z" fill="#000000"/><path d="M25,16l-0,2l-2,0l-0,-2z" fill="#000000"/><path d="M23,10l-0,10l-2,0l-0,-10z" fill="#000000"/><path d="M13,16h4v2h-4z" fill="#000000"/><path d="M13,16.5h4v2h-4z" fill="#000000"/><path d="M13,11.5h4v2h-4z" fill="#000000"/><path d="M13,13.5h4v3h-4z" fill="#000000"/><path d="M17,13.5h2v3h-2z" fill="#000000"/><path d="M11,13.5h2v3h-2z" fill="#000000"/><path d="M4,2h2v2h-2z" fill="#000000"/><path d="M24,2h2v2h-2z" fill="#000000"/><path d="M26,4h2v2h-2z" fill="#000000"/><path d="M2,4h2v2h-2z" fill="#000000"/><path d="M4,26h2v2h-2z" fill="#000000"/><path d="M2,24h2v2h-2z" fill="#000000"/><path d="M24,26h2v2h-2z" fill="#000000"/><path d="M26,24h2v2h-2z" fill="#000000"/><path d="M28,6h2v18h-2z" fill="#000000"/><path d="M0,6h2v18h-2z" fill="#000000"/><path d="M6,28h18v2h-18z" fill="#000000"/></g></svg>