<svg xmlns="http://www.w3.org/2000/svg" viewBox="0 0 75 75">
  <g>
    <rect x="10" y="60" width="5" height="5"/>
    <rect x="35" y="55" width="5" height="5"/>
    <path d="M30,55h-5v-5h-5c0,4.45,0,10.55,0,15c4.45,0,10.55,0,15,0v-5h-5V55z"/>
    <path d="M10,50H5c0,2.49,0,7.51,0,10h5C10,57.51,10,52.49,10,50z"/>
    <rect x="25" y="45" width="5" height="5"/>
    <rect x="50" y="40" width="5" height="5"/>
    <polygon points="45,40 40,40 40,35 35,35 35,40 30,40 30,45 35,45 35,50 40,50 40,55 45,55 45,50 50,50 50,45 45,45"/>
    <path d="M5,40c0-6.27,0-13.73,0-20H0c0,9.74,0,20.26,0,30h5C5,47.51,5,42.49,5,40z"/>
    <rect x="55" y="35" width="5" height="5"/>
    <rect x="60" y="30" width="5" height="5"/>
    <rect x="40" y="30" width="5" height="5"/>
    <rect x="25" y="30" width="5" height="5"/>
    <rect x="65" y="25" width="5" height="5"/>
    <rect x="45" y="25" width="5" height="5"/>
    <rect x="30" y="25" width="5" height="5"/>
    <path d="M20,25v-5h-5c0,2.49,0,7.51,0,10h5V25z"/>
    <rect x="70" y="20" width="5" height="5"/>
    <rect x="50" y="20" width="5" height="5"/>
    <rect x="65" y="15" width="5" height="5"/>
    <rect x="55" y="15" width="5" height="5"/>
    <path d="M30,20h5v5h5c0-2.49,0-7.51,0-10c-4.45,0-10.55,0-15,0v5H30z"/>
    <rect x="5" y="15" width="5" height="5"/>
    <rect x="60" y="10" width="5" height="5"/>
    <path d="M20,15h5v-5c-4.45,0-10.55,0-15,0v5C12.49,15,17.51,15,20,15z"/>
  </g>
</svg>
