<svg width="64" height="64" viewBox="0 0 64 64" xmlns="http://www.w3.org/2000/svg">
  <defs><clipPath id="clip0"><path d="M8,0L56,0A8,8 0,0 1,64 8L64,56A8,8 0,0 1,56 64L8,64A8,8 0,0 1,0 56L0,8A8,8 0,0 1,8 0z"/></clipPath></defs>
  <g clip-path="url(#clip0)">
    <path
        fill-rule="evenodd"
        clip-rule="evenodd"
        fill="#D6D6D6"
        d="M28 6 H36 V8 H40 V10 H42 V12 H44 V14 H46 V24 H44 V26 H42 V28 H40 V30 H38 V32 H36 V34 H34 V38 H33 V44 H31 V38 H30 V34 H28 V32 H26 V30 H24 V28 H22 V26 H20 V24 H18 V14 H20 V12 H22 V10 H24 V8 H28 V6 Z M30 16 H34 V18 H36 V22 H34 V24 H30 V22 H28 V18 H30 V16 Z"/>
  </g>
  <path
      stroke-width="1"
      d="M8,0.5L56,0.5A7.5,7.5 0,0 1,63.5 8L63.5,56A7.5,7.5 0,0 1,56 63.5L8,63.5A7.5,7.5 0,0 1,0.5 56L0.5,8A7.5,7.5 0,0 1,8 0.5z"
      fill="#00000000"
      stroke="#616161"/>
</svg>
