<svg width="64" height="64" viewBox="0 0 64 64" xmlns="http://www.w3.org/2000/svg">
    <path
            fill="#000000"
            d="M55,20h1v24h-1z" />
    <path
            fill="#000000"
            d="M38,18h1v31h-1z" />
    <path
            fill="#000000"
            d="M41,18h1v31h-1z" />
    <path
            fill="#000000"
            d="M45,21h1v12h-1z" />
    <path
            fill="#000000"
            d="M52,21h1v12h-1z" />
    <path
            fill="#000000"
            d="M46,20h6v1h-6z" />
    <path
            fill="#000000"
            d="M46,33h6v1h-6z" />
    <path
            fill="#000000"
            d="M40,40h1v4h-1z" />
    <path
            fill="#000000"
            d="M39,16h1v2h-1z" />
    <path
            fill="#000000"
            d="M40,15h1v1h-1z" />
    <path
            fill="#000000"
            d="M41,14h1v1h-1z" />
    <path
            fill="#000000"
            d="M42,13h1v1h-1z" />
    <path
            fill="#000000"
            d="M43,12h6v1h-6z" />
    <path
            fill="#000000"
            d="M46,13h1v1h-1z" />
    <path
            fill="#000000"
            d="M45,14h1v1h-1z" />
    <path
            fill="#000000"
            d="M44,15h1v1h-1z" />
    <path
            fill="#000000"
            d="M43,16h1v1h-1z" />
    <path
            fill="#000000"
            d="M42,17h1v1h-1z" />
    <path
            fill="#000000"
            d="M49,13h1v1h-1z" />
    <path
            fill="#000000"
            d="M50,14h1v1h-1z" />
    <path
            fill="#000000"
            d="M51,15h1v1h-1z" />
    <path
            fill="#000000"
            d="M52,16h1v1h-1z" />
    <path
            fill="#000000"
            d="M53,17h1v1h-1z" />
    <path
            fill="#000000"
            d="M54,18h1v2h-1z" />
    <path
            fill="#000000"
            d="M35,29h3v6h-3z" />
    <path
            fill="#000000"
            d="M34,27h1v10h-1z" />
    <path
            fill="#000000"
            d="M33,28h1v8h-1z" />
    <path
            fill="#000000"
            d="M32,29h1v6h-1z" />
    <path
            fill="#000000"
            d="M31,30h1v4h-1z" />
    <path
            fill="#000000"
            d="M30,31h1v2h-1z" />
    <path
            fill="#000000"
            d="M46,38h1v4h-1z" />
    <path
            fill="#000000"
            d="M52,38h1v4h-1z" />
    <path
            fill="#000000"
            d="M49,39h1v2h-1z" />
    <path
            fill="#000000"
            d="M47,42h1v1h-1z" />
    <path
            fill="#000000"
            d="M51,42h1v1h-1z" />
    <path
            fill="#000000"
            d="M48,43h3v1h-3z" />
    <path
            fill="#000000"
            d="M48,36h3v1h-3z" />
    <path
            fill="#000000"
            d="M47,37h1v1h-1z" />
    <path
            fill="#000000"
            d="M51,37h1v1h-1z" />
    <path
            fill="#000000"
            d="M45,36h1v1h-1z" />
    <path
            fill="#000000"
            d="M46,45h1v1h-1z" />
    <path
            fill="#000000"
            d="M45,46h1v1h-1z" />
    <path
            fill="#000000"
            d="M47,46h1v1h-1z" />
    <path
            fill="#000000"
            d="M46,47h1v1h-1z" />
    <path
            fill="#000000"
            d="M42,49h1v1h-1z" />
    <path
            fill="#000000"
            d="M39,49h1v1h-1z" />
    <path
            fill="#000000"
            d="M40,50h10v1h-10z" />
    <path
            fill="#000000"
            d="M54,44h1v2h-1z" />
    <path
            fill="#000000"
            d="M53,46h1v1h-1z" />
    <path
            fill="#000000"
            d="M52,47h1v1h-1z" />
    <path
            fill="#000000"
            d="M51,48h1v1h-1z" />
    <path
            fill="#000000"
            d="M50,49h1v1h-1z" />
    <path
            fill="#000000"
            d="M10,15h14v1h-14z" />
    <path
            fill="#000000"
            d="M9,16h3v1h-3z" />
    <path
            fill="#000000"
            d="M9,17h2v31h-2z" />
    <path
            fill="#000000"
            d="M25,23h2v20h-2z" />
    <path
            fill="#000000"
            d="M13,23h2v19h-2z" />
    <path
            fill="#000000"
            d="M15,37h2v7h-2z" />
    <path
            fill="#000000"
            d="M17,38h6v6h-6z" />
    <path
            fill="#000000"
            d="M23,37h2v7h-2z" />
    <path
            fill="#000000"
            d="M24,36h1v1h-1z" />
    <path
            fill="#000000"
            d="M15,36h1v1h-1z" />
    <path
            fill="#000000"
            d="M13,43h1v2h-1z" />
    <path
            fill="#000000"
            d="M22,45h1v1h-1z" />
    <path
            fill="#000000"
            d="M12,45h1v1h-1z" />
    <path
            fill="#000000"
            d="M15,45h1v1h-1z" />
    <path
            fill="#000000"
            d="M23,47h1v1h-1z" />
    <path
            fill="#000000"
            d="M24,46h1v1h-1z" />
    <path
            fill="#000000"
            d="M25,45h1v1h-1z" />
    <path
            fill="#000000"
            d="M26,43h1v2h-1z" />
    <path
            fill="#000000"
            d="M13,18h1v2h-1z" />
    <path
            fill="#000000"
            d="M12,17h1v1h-1z" />
    <path
            fill="#000000"
            d="M15,17h1v1h-1z" />
    <path
            fill="#000000"
            d="M22,17h1v1h-1z" />
    <path
            fill="#000000"
            d="M24,16h1v1h-1z" />
    <path
            fill="#000000"
            d="M25,17h1v1h-1z" />
    <path
            fill="#000000"
            d="M26,18h1v2h-1z" />
    <path
            fill="#000000"
            d="M24,23h1v5h-1z" />
    <path
            fill="#000000"
            d="M15,23h1v5h-1z" />
    <path
            fill="#000000"
            d="M16,23h1v4h-1z" />
    <path
            fill="#000000"
            d="M23,23h1v4h-1z" />
    <path
            fill="#000000"
            d="M17,23h6v3h-6z" />
    <path
            fill="#000000"
            d="M17,27h6v1h-6z" />
    <path
            fill="#000000"
            d="M17,36h6v1h-6z" />
    <path
            fill="#000000"
            d="M15,29h2v6h-2z" />
    <path
            fill="#000000"
            d="M17,30h2v4h-2z" />
    <path
            fill="#000000"
            d="M23,29h2v6h-2z" />
    <path
            fill="#000000"
            d="M21,30h2v4h-2z" />
    <path
            fill="#000000"
            d="M22,35h2v1h-2z" />
    <path
            fill="#000000"
            d="M16,35h2v1h-2z" />
    <path
            fill="#000000"
            d="M18,34h4v1h-4z" />
    <path
            fill="#000000"
            d="M18,29h4v1h-4z" />
    <path
            fill="#000000"
            d="M19,30h2v1h-2z" />
    <path
            fill="#000000"
            d="M19,33h2v1h-2z" />
    <path
            fill="#000000"
            d="M16,28h2v1h-2z" />
    <path
            fill="#000000"
            d="M22,28h2v1h-2z" />
    <path
            fill="#000000"
            d="M10,48h2v1h-2z" />
    <path
            fill="#000000"
            d="M11,46h1v2h-1z" />
    <path
            fill="#000000"
            d="M12,47h11v2h-11z" />
    <path
            fill="#000000"
            d="M14,42h1v1h-1z" />
    <path
            fill="#000000"
            d="M15,19h10v1h-10z" />
    <path
            fill="#000000"
            d="M23,21h4v1h-4z" />
    <path
            fill="#000000"
            d="M13,21h4v1h-4z" />
    <path
            fill="#000000"
            d="M14,20h13v1h-13z" />
    <path
            fill="#000000"
            d="M13,22h14v1h-14z" />
    <path
            fill="#00000000"
            d="M8,0.5L56,0.5A7.5,7.5 0,0 1,63.5 8L63.5,56A7.5,7.5 0,0 1,56 63.5L8,63.5A7.5,7.5 0,0 1,0.5 56L0.5,8A7.5,7.5 0,0 1,8 0.5z"
            stroke="#DFDFDF"
            stroke-width="1" />
</svg>
