<svg xmlns="http://www.w3.org/2000/svg" width="42" height="20" viewBox="0 0 42 20" fill="currentColor">
		<path d="M6.35279 1.79753C7.09301 0.675317 8.34746 0 9.69181 0H34.4303C35.7869 0 37.0511 0.687611 37.7883 1.82648L41.3579 7.3414C41.777 7.98886 42 8.74367 42 9.51493V16C42 18.2091 40.2091 20 38 20H9.34742C8.19751 20 7.10322 19.5051 6.3438 18.6416L2.01752 13.7226C0.826345 12.3681 0.688965 10.3841 1.68211 8.87843L6.35279 1.79753Z" fill="#589DFF"/>
		<path d="M26.3396 12.338L22.566 12.338L22.566 13.2535L20.6792 13.2535L20.6792 10.507L28.2264 10.507L28.2264 12.338L32 9.59155L28.2264 6.84507L28.2264 8.67606L20.6792 8.67606L20.6792 5.92958L22.6321 5.92958C22.9811 6.57042 23.6509 7.02817 24.4528 7.02817C25.6038 7.02817 26.5283 6.12183 26.5283 5.01408C26.5283 3.89718 25.6038 3 24.4528 3C23.6509 3 22.9811 3.45775 22.6321 4.09859L20.6792 4.09859C20.1788 4.09859 19.6989 4.2915 19.3451 4.63487C18.9912 4.97825 18.7925 5.44397 18.7925 5.92958L18.7925 8.67606L15.9151 8.67606C15.5755 8.02606 14.8774 7.57746 14.0755 7.57746C13.525 7.57746 12.9971 7.78966 12.6079 8.16738C12.2187 8.54509 12 9.05738 12 9.59155C12 10.1257 12.2187 10.638 12.6079 11.0157C12.9971 11.3934 13.525 11.6056 14.0755 11.6056C14.8774 11.6056 15.5755 11.157 15.9151 10.507L18.7925 10.507L18.7925 13.2535C18.7925 13.7391 18.9912 14.2048 19.3451 14.5482C19.6989 14.8916 20.1788 15.0845 20.6792 15.0845L22.566 15.0845L22.566 16L26.3396 16L26.3396 12.338Z" fill="white"/>
	
</svg>
