<svg xmlns="http://www.w3.org/2000/svg" width="42" height="20" viewBox="0 0 42 20" fill="currentColor">
		<path d="M6.35279 1.79753C7.09301 0.675317 8.34746 0 9.69181 0H34.4303C35.7869 0 37.0511 0.687611 37.7883 1.82648L41.3579 7.3414C41.777 7.98886 42 8.74367 42 9.51493V16C42 18.2091 40.2091 20 38 20H9.34742C8.19751 20 7.10322 19.5051 6.3438 18.6416L2.01752 13.7226C0.826345 12.3681 0.688965 10.3841 1.68211 8.87843L6.35279 1.79753Z" fill="#00c853"/>
		<path d="M26.7371 7.67573C27.1103 7.26861 27.0828 6.63604 26.6757 6.26285C26.2686 5.88966 25.636 5.91716 25.2628 6.32428L20.5359 11.481L18.7682 9.35982C18.4147 8.93554 17.7841 8.87822 17.3598 9.23178C16.9356 9.58535 16.8782 10.2159 17.2318 10.6402L19.7318 13.6402C19.9165 13.8618 20.188 13.9929 20.4764 13.9997C20.7649 14.0065 21.0422 13.8884 21.2372 13.6757L26.7371 7.67573Z" fill="white"/>
	
</svg>
