<svg xmlns="http://www.w3.org/2000/svg" width="75" height="75" viewBox="0 0 75 75" fill="currentColor">
		<g>
			<path d="M60,55c-14.83,0-30.17,0-45,0v5c18.19,0,36.81,0,55,0v-5C67.51,55,62.49,55,60,55z"/>
			<rect x="10" y="50" width="5" height="5"/>
			<rect x="5" y="45" width="5" height="5"/>
			<rect x="60" y="40" width="5" height="5"/>
			<polygon points="55,35 55,30 50,30 50,35 45,35 45,40 50,40 50,45 55,45 55,40 60,40 60,35 	"/>
			<path d="M5,35H0c0,2.49,0,7.51,0,10h5C5,42.51,5,37.49,5,35z"/>
			<path d="M70,30c0,8.02,0,16.98,0,25h5c0-8.02,0-16.98,0-25H70z"/>
			<path d="M30,30c-2.49,0-7.51,0-10,0c0,4.45,0,10.55,0,15c6.27,0,13.73,0,20,0c0-4.45,0-10.55,0-15C37.51,30,32.49,30,30,30z"/>
			<rect x="5" y="30" width="5" height="5"/>
			<rect x="65" y="25" width="5" height="5"/>
			<rect x="10" y="25" width="5" height="5"/>
			<path d="M25,25c13.14,0,26.86,0,40,0v-5c-16.51,0-33.49,0-50,0v5C17.49,25,22.51,25,25,25z"/>
		</g>
	
</svg>
