<svg xmlns="http://www.w3.org/2000/svg" viewBox="0 0 28 28" width="28" height="28">
  <path d="M5.88,0H16.315C17.117,0 17.883,0.335 18.428,0.924L24.55,7.535C25.043,8.067 25.316,8.766 25.316,9.492V24.956C25.316,26.546 24.027,27.836 22.437,27.836H5.88C4.289,27.836 3,26.546 3,24.956L3,2.88C3,1.29 4.289,0 5.88,0ZM6,3L6,24.836H22.316V10.244L18.298,10.244C16.898,10.244 15.763,9.109 15.763,7.71L15.763,3L6,3ZM18.763,5.701V7.244L20.192,7.244L18.763,5.701ZM15.158,12.999C15.158,12.447 14.711,11.999 14.158,11.999C13.606,11.999 13.158,12.447 13.158,12.999L13.158,19.161L10.619,17.257C10.177,16.926 9.55,17.015 9.219,17.457C8.888,17.899 8.977,18.526 9.419,18.857L13.558,21.961C13.914,22.228 14.403,22.228 14.758,21.961L18.898,18.857C19.339,18.526 19.429,17.899 19.098,17.457C18.766,17.015 18.139,16.926 17.698,17.257L15.158,19.162L15.158,12.999Z" fill="#ffffff" fill-opacity="0.8" fill-rule="evenodd" clip-rule="evenodd"/>
</svg>
