<svg xmlns="http://www.w3.org/2000/svg" viewBox="0 0 154 92" width="154" height="92">
  <path d="M1.54,87.4h1.54v3.07h-1.54z" fill="#C1C1C1"/>
  <path d="M3.08,82.8h1.54v4.6h-1.54z" fill="#C1C1C1"/>
  <path d="M4.62,76.67h1.54v6.13h-1.54z" fill="#C1C1C1"/>
  <path d="M6.16,72.07h1.54v4.6h-1.54z" fill="#C1C1C1"/>
  <path d="M7.7,65.93h1.54v6.13h-1.54z" fill="#C1C1C1"/>
  <path d="M10.78,65.93h1.54v9.2h-1.54z" fill="#C1C1C1"/>
  <path d="M9.24,39.87h1.54v26.07h-1.54z" fill="#C1C1C1"/>
  <path d="M10.78,33.73h1.54v6.13h-1.54z" fill="#C1C1C1"/>
  <path d="M12.32,29.13h1.54v4.6h-1.54z" fill="#C1C1C1"/>
  <path d="M13.86,26.07h1.54v3.07h-1.54z" fill="#C1C1C1"/>
  <path d="M15.4,23h1.54v3.07h-1.54z" fill="#C1C1C1"/>
  <path d="M16.94,21.47h1.54v1.53h-1.54z" fill="#C1C1C1"/>
  <path d="M26.18,12.27h3.08v1.53h-3.08z" fill="#C1C1C1"/>
  <path d="M32.34,9.2h4.62v1.53h-4.62z" fill="#C1C1C1"/>
  <path d="M36.96,7.67h18.48v1.53h-18.48z" fill="#C1C1C1"/>
  <path d="M55.44,9.2h6.16v1.53h-6.16z" fill="#C1C1C1"/>
  <path d="M61.6,10.73h3.08v1.53h-3.08z" fill="#C1C1C1"/>
  <path d="M64.68,12.27h3.08v1.53h-3.08z" fill="#C1C1C1"/>
  <path d="M67.76,13.8h1.54v1.53h-1.54z" fill="#C1C1C1"/>
  <path d="M77,23h1.54v3.07h-1.54z" fill="#C1C1C1"/>
  <path d="M80.08,29.13h1.54v4.6h-1.54z" fill="#C1C1C1"/>
  <path d="M81.62,33.73h1.54v3.07h-1.54z" fill="#C1C1C1"/>
  <path d="M80.08,36.8h1.54v1.53h-1.54z" fill="#C1C1C1"/>
  <path d="M72.38,41.4h3.08v1.53h-3.08z" fill="#C1C1C1"/>
  <path d="M67.76,44.47h3.08v1.53h-3.08z" fill="#C1C1C1"/>
  <path d="M75.46,39.87h1.54v1.53h-1.54z" fill="#C1C1C1"/>
  <path d="M70.84,42.93h1.54v1.53h-1.54z" fill="#C1C1C1"/>
  <path d="M77,38.33h3.08v1.53h-3.08z" fill="#C1C1C1"/>
  <path d="M83.16,33.73h1.54v1.53h-1.54z" fill="#C1C1C1"/>
  <path d="M84.7,32.2h3.08v1.53h-3.08z" fill="#C1C1C1"/>
  <path d="M90.86,29.13h6.16v1.53h-6.16z" fill="#C1C1C1"/>
  <path d="M97.02,30.67h3.08v1.53h-3.08z" fill="#C1C1C1"/>
  <path d="M100.1,32.2h1.54v1.53h-1.54z" fill="#C1C1C1"/>
  <path d="M101.64,33.73h1.54v7.67h-1.54z" fill="#C1C1C1"/>
  <path d="M100.1,38.33h1.54v6.13h-1.54z" fill="#C1C1C1"/>
  <path d="M98.56,38.33h1.54v7.67h-1.54z" fill="#C1C1C1"/>
  <path d="M97.02,38.33h1.54v9.2h-1.54z" fill="#C1C1C1"/>
  <path d="M95.48,39.87h1.54v9.2h-1.54z" fill="#C1C1C1"/>
  <path d="M121.66,15.33h1.54v3.07h-1.54z" fill="#C1C1C1"/>
  <path d="M123.2,13.8h1.54v6.13h-1.54z" fill="#C1C1C1"/>
  <path d="M124.74,13.8h1.54v7.67h-1.54z" fill="#C1C1C1"/>
  <path d="M130.9,19.93h1.54v7.67h-1.54z" fill="#C1C1C1"/>
  <path d="M140.14,15.33h1.54v12.27h-1.54z" fill="#C1C1C1"/>
  <path d="M141.68,12.27h1.54v12.27h-1.54z" fill="#C1C1C1"/>
  <path d="M143.22,9.2h1.54v12.27h-1.54z" fill="#C1C1C1"/>
  <path d="M146.3,3.07h1.54v12.27h-1.54z" fill="#C1C1C1"/>
  <path d="M147.84,1.53h1.54v10.73h-1.54z" fill="#C1C1C1"/>
  <path d="M149.38,1.53h1.54v7.67h-1.54z" fill="#C1C1C1"/>
  <path d="M150.92,3.07h1.54v3.07h-1.54z" fill="#C1C1C1"/>
  <path d="M144.76,6.13h1.54v12.27h-1.54z" fill="#C1C1C1"/>
  <path d="M138.6,18.4h1.54v12.27h-1.54z" fill="#C1C1C1"/>
  <path d="M137.06,21.47h1.54v10.73h-1.54z" fill="#C1C1C1"/>
  <path d="M135.52,24.53h1.54v7.67h-1.54z" fill="#C1C1C1"/>
  <path d="M133.98,23h1.54v7.67h-1.54z" fill="#C1C1C1"/>
  <path d="M132.44,21.47h1.54v7.67h-1.54z" fill="#C1C1C1"/>
  <path d="M129.36,18.4h1.54v7.67h-1.54z" fill="#C1C1C1"/>
  <path d="M127.82,16.87h1.54v7.67h-1.54z" fill="#C1C1C1"/>
  <path d="M126.28,15.33h1.54v7.67h-1.54z" fill="#C1C1C1"/>
  <path d="M93.94,39.87h1.54v10.73h-1.54z" fill="#C1C1C1"/>
  <path d="M92.4,41.4h1.54v10.73h-1.54z" fill="#C1C1C1"/>
  <path d="M87.78,46h1.54v10.73h-1.54z" fill="#C1C1C1"/>
  <path d="M86.24,47.53h1.54v13.8h-1.54z" fill="#C1C1C1"/>
  <path d="M87.78,58.27h1.54v3.07h-1.54z" fill="#C1C1C1"/>
  <path d="M89.32,58.27h6.16v1.53h-6.16z" fill="#C1C1C1"/>
  <path d="M95.48,56.73h7.7v1.53h-7.7z" fill="#C1C1C1"/>
  <path d="M103.18,58.27h1.54v6.13h-1.54z" fill="#C1C1C1"/>
  <path d="M101.64,64.4h1.54v1.53h-1.54z" fill="#C1C1C1"/>
  <path d="M98.56,67.47h1.54v1.53h-1.54z" fill="#C1C1C1"/>
  <path d="M95.48,69h3.08v1.53h-3.08z" fill="#C1C1C1"/>
  <path d="M90.86,70.53h4.62v1.53h-4.62z" fill="#C1C1C1"/>
  <path d="M86.24,72.07h4.62v1.53h-4.62z" fill="#C1C1C1"/>
  <path d="M81.62,73.6h9.24v1.53h-9.24z" fill="#C1C1C1"/>
  <path d="M77,75.13h13.86v1.53h-13.86z" fill="#C1C1C1"/>
  <path d="M70.84,76.67h20.02v1.53h-20.02z" fill="#C1C1C1"/>
  <path d="M73.92,78.2h13.86v1.53h-13.86z" fill="#C1C1C1"/>
  <path d="M77,79.73h7.7v1.53h-7.7z" fill="#C1C1C1"/>
  <path d="M89.32,78.2h1.54v3.07h-1.54z" fill="#C1C1C1"/>
  <path d="M90.86,81.27h1.54v6.13h-1.54z" fill="#C1C1C1"/>
  <path d="M92.4,87.4h1.54v3.07h-1.54z" fill="#C1C1C1"/>
  <path d="M92.4,82.8h6.16v1.53h-6.16z" fill="#C1C1C1"/>
  <path d="M98.56,81.27h3.08v1.53h-3.08z" fill="#C1C1C1"/>
  <path d="M107.8,76.67h1.54v1.53h-1.54z" fill="#C1C1C1"/>
  <path d="M115.5,67.47h1.54v3.07h-1.54z" fill="#C1C1C1"/>
  <path d="M123.2,47.53h1.54v6.13h-1.54z" fill="#C1C1C1"/>
  <path d="M129.36,47.53h1.54v3.07h-1.54z" fill="#C1C1C1"/>
  <path d="M132.44,56.73h3.08v1.53h-3.08z" fill="#C1C1C1"/>
  <path d="M138.6,59.8h1.54v1.53h-1.54z" fill="#C1C1C1"/>
  <path d="M123.2,62.87h1.54v6.13h-1.54z" fill="#C1C1C1"/>
  <path d="M141.68,64.4h1.54v9.2h-1.54z" fill="#C1C1C1"/>
  <path d="M140.14,61.33h1.54v3.07h-1.54z" fill="#C1C1C1"/>
  <path d="M127.82,75.13h3.08v1.53h-3.08z" fill="#C1C1C1"/>
  <path d="M140.14,73.6h1.54v1.53h-1.54z" fill="#C1C1C1"/>
  <path d="M137.06,75.13h3.08v1.53h-3.08z" fill="#C1C1C1"/>
  <path d="M130.9,76.67h6.16v1.53h-6.16z" fill="#C1C1C1"/>
  <path d="M133.98,78.2h1.54v3.07h-1.54z" fill="#C1C1C1"/>
  <path d="M129.36,87.4h1.54v3.07h-1.54z" fill="#C1C1C1"/>
  <path d="M130.9,84.33h1.54v3.07h-1.54z" fill="#C1C1C1"/>
  <path d="M132.44,81.27h1.54v3.07h-1.54z" fill="#C1C1C1"/>
  <path d="M126.28,72.07h1.54v3.07h-1.54z" fill="#C1C1C1"/>
  <path d="M124.74,69h1.54v3.07h-1.54z" fill="#C1C1C1"/>
  <path d="M124.74,61.33h1.54v1.53h-1.54z" fill="#C1C1C1"/>
  <path d="M126.28,59.8h1.54v1.53h-1.54z" fill="#C1C1C1"/>
  <path d="M135.52,58.27h3.08v1.53h-3.08z" fill="#C1C1C1"/>
  <path d="M129.36,47.53h1.54v3.07h-1.54z" fill="#C1C1C1"/>
  <path d="M127.82,58.27h3.08v1.53h-3.08z" fill="#C1C1C1"/>
  <path d="M130.9,50.6h1.54v7.67h-1.54z" fill="#C1C1C1"/>
  <path d="M124.74,46h4.62v1.53h-4.62z" fill="#C1C1C1"/>
  <path d="M121.66,53.67h1.54v4.6h-1.54z" fill="#C1C1C1"/>
  <path d="M120.12,58.27h1.54v3.07h-1.54z" fill="#C1C1C1"/>
  <path d="M118.58,61.33h1.54v3.07h-1.54z" fill="#C1C1C1"/>
  <path d="M117.04,64.4h1.54v3.07h-1.54z" fill="#C1C1C1"/>
  <path d="M113.96,70.53h1.54v1.53h-1.54z" fill="#C1C1C1"/>
  <path d="M112.42,72.07h1.54v1.53h-1.54z" fill="#C1C1C1"/>
  <path d="M110.88,73.6h1.54v1.53h-1.54z" fill="#C1C1C1"/>
  <path d="M109.34,75.13h1.54v1.53h-1.54z" fill="#C1C1C1"/>
  <path d="M104.72,78.2h3.08v1.53h-3.08z" fill="#C1C1C1"/>
  <path d="M101.64,79.73h3.08v1.53h-3.08z" fill="#C1C1C1"/>
  <path d="M100.1,65.93h1.54v1.53h-1.54z" fill="#C1C1C1"/>
  <path d="M84.7,49.07h1.54v12.27h-1.54z" fill="#C1C1C1"/>
  <path d="M83.16,50.6h1.54v10.73h-1.54z" fill="#C1C1C1"/>
  <path d="M81.62,52.13h1.54v7.67h-1.54z" fill="#C1C1C1"/>
  <path d="M80.08,53.67h1.54v6.13h-1.54z" fill="#C1C1C1"/>
  <path d="M78.54,55.2h1.54v3.07h-1.54z" fill="#C1C1C1"/>
  <path d="M77,56.73h1.54v1.53h-1.54z" fill="#C1C1C1"/>
  <path d="M73.92,58.27h3.08v1.53h-3.08z" fill="#C1C1C1"/>
  <path d="M69.3,59.8h4.62v1.53h-4.62z" fill="#C1C1C1"/>
  <path d="M64.68,61.33h4.62v1.53h-4.62z" fill="#C1C1C1"/>
  <path d="M53.9,62.87h21.56v1.53h-21.56z" fill="#C1C1C1"/>
  <path d="M49.28,61.33h4.62v1.53h-4.62z" fill="#C1C1C1"/>
  <path d="M46.2,59.8h3.08v1.53h-3.08z" fill="#C1C1C1"/>
  <path d="M44.66,58.27h1.54v1.53h-1.54z" fill="#C1C1C1"/>
  <path d="M50.82,49.07h1.54v1.53h-1.54z" fill="#C1C1C1"/>
  <path d="M47.74,47.53h3.08v1.53h-3.08z" fill="#C1C1C1"/>
  <path d="M50.82,44.47h1.54v3.07h-1.54z" fill="#C1C1C1"/>
  <path d="M50.82,33.73h1.54v3.07h-1.54z" fill="#C1C1C1"/>
  <path d="M49.28,32.2h1.54v1.53h-1.54z" fill="#C1C1C1"/>
  <path d="M47.74,30.67h1.54v1.53h-1.54z" fill="#C1C1C1"/>
  <path d="M32.34,30.67h1.54v1.53h-1.54z" fill="#C1C1C1"/>
  <path d="M30.8,32.2h1.54v1.53h-1.54z" fill="#C1C1C1"/>
  <path d="M29.26,33.73h1.54v3.07h-1.54z" fill="#C1C1C1"/>
  <path d="M27.72,36.8h1.54v7.67h-1.54z" fill="#C1C1C1"/>
  <path d="M29.26,44.47h1.54v3.07h-1.54z" fill="#C1C1C1"/>
  <path d="M30.8,47.53h1.54v1.53h-1.54z" fill="#C1C1C1"/>
  <path d="M35.42,47.53h3.08v1.53h-3.08z" fill="#C1C1C1"/>
  <path d="M32.34,50.6h1.54v3.07h-1.54z" fill="#C1C1C1"/>
  <path d="M30.8,53.67h1.54v3.07h-1.54z" fill="#C1C1C1"/>
  <path d="M32.34,49.07h3.08v1.53h-3.08z" fill="#C1C1C1"/>
  <path d="M35.42,46h12.32v1.53h-12.32z" fill="#C1C1C1"/>
  <path d="M33.88,44.47h13.86v1.53h-13.86z" fill="#C1C1C1"/>
  <path d="M32.34,42.93h16.94v1.53h-16.94z" fill="#C1C1C1"/>
  <path d="M32.34,38.33h16.94v1.53h-16.94z" fill="#C1C1C1"/>
  <path d="M40.04,36.8h9.24v1.53h-9.24z" fill="#C1C1C1"/>
  <path d="M40.04,35.27h7.7v1.53h-7.7z" fill="#C1C1C1"/>
  <path d="M35.42,33.73h10.78v1.53h-10.78z" fill="#C1C1C1"/>
  <path d="M36.96,32.2h7.7v1.53h-7.7z" fill="#C1C1C1"/>
  <path d="M33.88,35.27h3.08v1.53h-3.08z" fill="#C1C1C1"/>
  <path d="M32.34,36.8h4.62v1.53h-4.62z" fill="#C1C1C1"/>
  <path d="M32.34,39.87h16.94v1.53h-16.94z" fill="#C1C1C1"/>
  <path d="M32.34,41.4h16.94v1.53h-16.94z" fill="#C1C1C1"/>
  <path d="M44.66,29.13h3.08v1.53h-3.08z" fill="#C1C1C1"/>
  <path d="M33.88,29.13h3.08v1.53h-3.08z" fill="#C1C1C1"/>
  <path d="M36.96,27.6h7.7v1.53h-7.7z" fill="#C1C1C1"/>
  <path d="M52.36,36.8h1.54v7.67h-1.54z" fill="#C1C1C1"/>
  <path d="M75.46,61.33h7.7v1.53h-7.7z" fill="#C1C1C1"/>
  <path d="M89.32,44.47h1.54v10.73h-1.54z" fill="#C1C1C1"/>
  <path d="M90.86,42.93h1.54v10.73h-1.54z" fill="#C1C1C1"/>
  <path d="M87.78,30.67h3.08v1.53h-3.08z" fill="#C1C1C1"/>
  <path d="M78.54,26.07h1.54v3.07h-1.54z" fill="#C1C1C1"/>
  <path d="M75.46,21.47h1.54v1.53h-1.54z" fill="#C1C1C1"/>
  <path d="M73.92,19.93h1.54v1.53h-1.54z" fill="#C1C1C1"/>
  <path d="M72.38,18.4h1.54v1.53h-1.54z" fill="#C1C1C1"/>
  <path d="M70.84,16.87h1.54v1.53h-1.54z" fill="#C1C1C1"/>
  <path d="M69.3,15.33h1.54v1.53h-1.54z" fill="#C1C1C1"/>
  <path d="M29.26,10.73h3.08v1.53h-3.08z" fill="#C1C1C1"/>
  <path d="M24.64,13.8h1.54v1.53h-1.54z" fill="#C1C1C1"/>
  <path d="M23.1,15.33h1.54v1.53h-1.54z" fill="#C1C1C1"/>
  <path d="M21.56,16.87h1.54v1.53h-1.54z" fill="#C1C1C1"/>
  <path d="M20.02,18.4h1.54v1.53h-1.54z" fill="#C1C1C1"/>
  <path d="M18.48,19.93h1.54v1.53h-1.54z" fill="#C1C1C1"/>
  <path d="M12.32,75.13h1.54v6.13h-1.54z" fill="#C1C1C1"/>
  <path d="M13.86,81.27h1.54v6.13h-1.54z" fill="#C1C1C1"/>
  <path d="M15.4,87.4h1.54v3.07h-1.54z" fill="#C1C1C1"/>
</svg>
