<svg xmlns="http://www.w3.org/2000/svg" width="20" height="20" viewBox="0 0 20 20" fill="currentColor">
		<rect x="11" y="7" width="2" height="2"/>
		<rect x="13" y="5" width="2" height="2"/>
		<rect x="10" y="2" width="2" height="2"/>
		<rect x="8" y="4" width="2" height="3"/>
		<rect x="4" y="8" width="2" height="2"/>
		<rect x="6" y="8" width="1" height="2"/>
		<rect x="10" y="13" width="2" height="3"/>
		<rect x="8" y="16" width="2" height="2"/>
		<rect x="2" y="10" width="2" height="2"/>
		<rect x="12" width="2" height="2"/>
		<rect x="14" width="2" height="2"/>
		<rect x="6" y="18" width="2" height="2"/>
		<rect x="4" y="18" width="2" height="2"/>
		<rect x="2" y="18" width="2" height="2"/>
		<rect y="16" width="2" height="2"/>
		<rect y="14" width="2" height="2"/>
		<rect y="12" width="2" height="2"/>
		<rect x="16" width="2" height="2"/>
		<rect x="18" y="2" width="2" height="2"/>
		<rect x="18" y="4" width="2" height="2"/>
		<rect x="18" y="6" width="2" height="2"/>
		<rect x="16" y="8" width="2" height="2"/>
		<rect x="14" y="10" width="2" height="2"/>
		<rect x="13" y="10" width="1" height="2"/>
		<rect x="9" y="9" width="2" height="2"/>
		<rect x="7" y="11" width="2" height="2"/>
		<rect x="5" y="13" width="2" height="2"/>
	
</svg>
