<svg xmlns="http://www.w3.org/2000/svg" viewBox="0 0 42 24">
  <path d="M6.979 4.21C7.58 3.299 8.6 2.75 9.692 2.75H34.43C35.533 2.75 36.56 3.309 37.159 4.234L40.728 9.749C41.069 10.275 41.25 10.888 41.25 11.515V18C41.25 19.795 39.795 21.25 38 21.25H9.347C8.413 21.25 7.524 20.848 6.907 20.146L2.581 15.227C1.613 14.127 1.501 12.515 2.308 11.291L6.979 4.21Z" fill="#36B37E" stroke="#36B37E" stroke-width="1.5"/>
  <path d="M20.895 15.475C20.701 15.475 20.514 15.4 20.374 15.264L17.661 12.626C17.364 12.337 17.358 11.862 17.647 11.565C17.936 11.268 18.411 11.262 18.708 11.551L20.857 13.641L25.254 8.69C25.529 8.38 26.003 8.352 26.313 8.627C26.623 8.902 26.651 9.376 26.376 9.686L21.456 15.226C21.319 15.38 21.125 15.47 20.918 15.475H20.895Z" fill="#fff"/>
</svg>
