<svg xmlns="http://www.w3.org/2000/svg" viewBox="0 0 42 24">
  <path d="M18.358 13.982L18.789 14.082C19.201 14.177 19.601 13.916 19.684 13.499C19.766 13.081 19.5 12.666 19.088 12.571L16.968 12.08C16.589 11.992 16.212 12.208 16.095 12.581L15.514 14.421C15.386 14.825 15.607 15.267 16.007 15.408C16.407 15.548 16.834 15.335 16.962 14.93L17.025 14.729C17.914 15.936 19.106 16.677 20.074 17.017C21.277 17.441 23.049 17.569 24.757 16.715C26.471 15.859 27.444 14.315 27.825 13.106C27.953 12.701 27.732 12.26 27.332 12.119C26.933 11.978 26.505 12.192 26.377 12.596C26.093 13.499 25.347 14.677 24.06 15.32C22.768 15.965 21.422 15.866 20.536 15.554C19.857 15.315 19.015 14.8 18.358 13.982Z" fill="#fff"/>
  <path d="M24.276 9.209C23.865 9.113 23.598 8.698 23.681 8.281C23.764 7.863 24.164 7.602 24.576 7.697L25.007 7.797C24.35 6.979 23.508 6.464 22.829 6.225C21.942 5.913 20.597 5.813 19.305 6.459C18.018 7.102 17.272 8.28 16.987 9.183C16.86 9.587 16.432 9.801 16.033 9.66C15.633 9.519 15.412 9.078 15.54 8.673C15.921 7.464 16.894 5.92 18.608 5.064C20.316 4.21 22.088 4.338 23.291 4.762C24.258 5.102 25.451 5.843 26.339 7.051L26.403 6.849C26.53 6.445 26.958 6.231 27.358 6.372C27.758 6.512 27.978 6.954 27.851 7.358L27.27 9.198C27.153 9.571 26.776 9.787 26.397 9.699L24.276 9.209Z" fill="#fff"/>
</svg>
