<svg xmlns="http://www.w3.org/2000/svg" viewBox="0 0 42 24">
  <path d="M6.979 4.21C7.58 3.299 8.6 2.75 9.692 2.75H34.43C35.533 2.75 36.56 3.309 37.159 4.234L40.728 9.749C41.069 10.275 41.25 10.888 41.25 11.515V18C41.25 19.795 39.795 21.25 38 21.25H9.347C8.413 21.25 7.524 20.848 6.907 20.146L2.581 15.227C1.613 14.127 1.501 12.515 2.308 11.291L6.979 4.21Z" fill="#589DFF" stroke="#589DFF" stroke-width="1.5"/>
  <path transform="translate(-0.5 2.5)" d="M26.3396 12.338L22.566 12.338L22.566 13.2535L20.6792 13.2535L20.6792 10.507L28.2264 10.507L28.2264 12.338L32 9.59155L28.2264 6.84507L28.2264 8.67606L20.6792 8.67606L20.6792 5.92958L22.6321 5.92958C22.9811 6.57042 23.6509 7.02817 24.4528 7.02817C25.6038 7.02817 26.5283 6.12183 26.5283 5.01408C26.5283 3.89718 25.6038 3 24.4528 3C23.6509 3 22.9811 3.45775 22.6321 4.09859L20.6792 4.09859C20.1788 4.09859 19.6989 4.2915 19.3451 4.63487C18.9912 4.97825 18.7925 5.44397 18.7925 5.92958L18.7925 8.67606L15.9151 8.67606C15.5755 8.02606 14.8774 7.57746 14.0755 7.57746C13.525 7.57746 12.9971 7.78966 12.6079 8.16738C12.2187 8.54509 12 9.05738 12 9.59155C12 10.1257 12.2187 10.638 12.6079 11.0157C12.9971 11.3934 13.525 11.6056 14.0755 11.6056C14.8774 11.6056 15.5755 11.157 15.9151 10.507L18.7925 10.507L18.7925 13.2535C18.7925 13.7391 18.9912 14.2048 19.3451 14.5482C19.6989 14.8916 20.1788 15.0845 20.6792 15.0845L22.566 15.0845L22.566 16L26.3396 16L26.3396 12.338Z" fill="#fff"/>
</svg>
