<svg xmlns="http://www.w3.org/2000/svg" viewBox="0 0 43 24"><path d="M26,5C26,5.409 25.93,5.802 25.801,6.167L29.5,6.167C30.144,6.167 30.667,6.689 30.667,7.333V11.033C30.302,10.903 29.909,10.833 29.5,10.833C27.567,10.833 26,12.4 26,14.333C26,16.266 27.567,17.833 29.5,17.833C29.909,17.833 30.302,17.763 30.667,17.634V21.333C30.667,21.978 30.144,22.5 29.5,22.5H15.5C14.856,22.5 14.333,21.978 14.333,21.333V17.634C13.968,17.763 13.576,17.833 13.167,17.833C11.233,17.833 9.667,16.266 9.667,14.333C9.667,12.4 11.233,10.833 13.167,10.833C13.576,10.833 13.968,10.903 14.333,11.033V7.333C14.333,6.689 14.856,6.167 15.5,6.167H19.199C19.07,5.802 19,5.409 19,5C19,3.067 20.567,1.5 22.5,1.5C24.433,1.5 26,3.067 26,5Z" fill="#000000" stroke="#000000" stroke-width="1.5"/></svg>