<svg xmlns="http://www.w3.org/2000/svg" viewBox="0 0 32 32" width="32dp" height="32dp"><path d="M8.392,8H4C2.895,8 2,8.895 2,10V26C2,27.105 2.895,28 4,28H28C29.105,28 30,27.105 30,26V10C30,8.895 29.105,8 28,8H24C23.371,8 22.778,7.704 22.4,7.2L20.6,4.8C20.222,4.296 19.629,4 19,4H13.108C12.419,4 11.778,4.355 11.413,4.94L10.087,7.06C9.722,7.645 9.081,8 8.392,8Z" fill="#00000000" stroke="#FF8200" stroke-width="2.5"/><path d="M16,17m-4.75,0a4.75,4.75 0,1 1,9.5 0a4.75,4.75 0,1 1,-9.5 0" fill="#00000000" stroke="#FF8200" stroke-width="2.5"/></svg>